<svg id="Layer_1" data-name="Layer 1" xmlns="http://www.w3.org/2000/svg" viewBox="0 0 412.84 414.28"><defs><style>.cls-1{fill:#fefefe;}.cls-2{fill:#214179;}.cls-3{fill:#1d3f78;}</style></defs><title>LogoTU-BG-blue</title><path class="cls-1" d="M.24,209.52q0-104.1,0-208.2c0-.9.2-1.1,1.1-1.1Q206.64.25,412,.22c.9,0,1.1.2,1.1,1.1q0,104,0,208c-.15-1.13-1-1.62-1.89-2.12-8.52-4.79-16.69-10.22-25.61-14.29-.09,0-.15-.17-.29-.32.22,0,.37,0,.51,0,8,.32,15.91-.21,23.86-.38,2.75-.06,2.71-.11,2.64-2.83,0-.91-.24-1.21-1.22-1.18-6.15.23-12.31.39-18.46.58-3.92.12-7.83.29-11.75.38-.75,0-1,.21-.91,1a20,20,0,0,1,.1,2.63,1.39,1.39,0,0,0,.85,1.41c1.37.75,2.7,1.56,4,2.34,7.26,4.19,14.32,8.74,22,12.19,0,0,0,.14,0,.27-7.89-.27-15.75.27-23.62.42-2.74.05-2.7.06-2.71,2.81,0,1,.22,1.28,1.25,1.24,6.23-.26,12.46-.46,18.7-.65,4.15-.13,8.31-.2,12.47-.3q0,100.5,0,201c0,.9-.2,1.1-1.1,1.1q-205.32,0-410.64,0c-.9,0-1.1-.2-1.1-1.1q0-100.74,0-201.48c.2,0,.4,0,.6,0l29,1c2.76.09,2.69.07,2.85-2.62.07-1.24-.26-1.61-1.51-1.62-4.16,0-8.31-.22-12.46-.36-.5,0-1.13.2-1.09-.79.19-4.59.33-9.19.44-13.78,0-.86.34-1,1.14-1q5.39.22,10.79.32c1.06,0,2.41.64,3.09-.1s.18-2.07.28-3.13c.06-.66-.14-.87-.84-.9-9.43-.29-18.85-.62-28.28-.93-1,0-2.31-.37-2.89.12s-.22,2-.37,3c-.12.86.23,1.06,1,1.08,3.8.09,7.59.27,11.38.34.84,0,1.07.23,1,1.08q-.29,6.83-.46,13.66c0,.78-.27.92-1,.89-3.39-.15-6.79-.27-10.18-.38-.75,0-1.61-.34-2.21.08-.32.23-.2,1.09-.28,1.66C.33,209.48.27,209.5.24,209.52ZM15.7,146.31c7.47,2.45,15.09,4.35,22.66,6.42,2.68.73,2.63.73,3.42-2,.26-.89.13-1.21-.8-1.45-9-2.39-17.94-4.84-26.92-7.23-1-.27-2.3-1.13-3-.59s-.66,1.95-1,3a1.09,1.09,0,0,0,.21,1.29c7,7.28,13.38,15.06,20.9,21.81.13.11.36.2.24.52a4.27,4.27,0,0,1-.55-.11c-7.33-2.49-14.86-4.3-22.31-6.38-3-.83-3-.81-3.74,2.21-.17.66,0,.88.61,1.06q14.79,4,29.56,8c.62.17.86.06,1-.52.24-1,.49-1.93.77-2.89a1.2,1.2,0,0,0-.35-1.28C31,162.4,25.8,156.46,20.23,150.88c-1.52-1.52-3.1-3-4.66-4.46Zm206.45,13.86,1.18.68q14.35,8.29,28.71,16.56a1.77,1.77,0,0,1,1,1.77q0,52.38,0,104.75a1.69,1.69,0,0,1-1,1.69Q230,298.35,207.87,311.14a1.9,1.9,0,0,1-2.22,0q-37.48-21.69-75-43.33c-1.18-.68-1.19-.68-1.19.74,0,11.12,0,22.24,0,33.36a1.57,1.57,0,0,0,1,1.57q37.67,21.72,75.31,43.5a1.84,1.84,0,0,0,2.14,0q37.33-21.6,74.7-43.11a2.74,2.74,0,0,0,1.6-2.78q-.06-69.72,0-139.43c0-.78.1-1.48-.83-2q-14.64-8.37-29.22-16.85a1.66,1.66,0,0,0-1.93,0q-7.91,4.6-15.85,9.16Zm15.6,80.24c-.53.28-.88.44-1.22.64q-14.24,8.23-28.47,16.48a2.14,2.14,0,0,1-2.54,0c-5.31-3.15-10.68-6.22-16-9.3L115.4,205.49c-.74-.43-1.29-.78-1.29-1.86q.07-25.62,0-51.24a1.68,1.68,0,0,1,1-1.7q34.67-20,69.32-40l6.89-4c-.14-.16-.19-.24-.25-.27q-15-8.68-30-17.37c-.59-.34-1-.12-1.4.14Q121.81,111,84,132.85a1.66,1.66,0,0,0-.91,1.72q0,43.44,0,86.88a1.75,1.75,0,0,0,1,1.77c4.93,2.8,9.82,5.64,14.73,8.47q53.51,30.9,107,61.82a1.67,1.67,0,0,0,1.92,0q14.49-8.4,29-16.74a1.77,1.77,0,0,0,1-1.81c0-9.28,0-18.56,0-27.84C237.75,244.94,237.75,242.78,237.75,240.4Zm61.71,0a4.6,4.6,0,0,0,.63-.24Q315,231.57,329.83,223a1.21,1.21,0,0,0,.64-1.26q0-43.73,0-87.47a1.29,1.29,0,0,0-.75-1.32c-1.78-1-3.53-2-5.29-3q-35.12-20.28-70.22-40.57a1.84,1.84,0,0,0-2.14,0q-15.56,9.05-31.17,18-45.22,26.11-90.44,52.2a1.68,1.68,0,0,0-1,1.66q0,16.8,0,33.59a1.59,1.59,0,0,0,.93,1.59q14.52,8.34,29,16.73c1.13.65,1.13.65,1.13-.69,0-11.08,0-22.16,0-33.23a1.83,1.83,0,0,1,1.09-1.84q45.34-26.14,90.64-52.33a1.56,1.56,0,0,1,1.82,0q22.1,12.81,44.23,25.54a2.12,2.12,0,0,1,1.21,2.15q0,43.07,0,86.15Zm-61.71-35.57c0-5.6,0-11.2,0-16.79a1.67,1.67,0,0,0-1-1.68q-14.52-8.33-29-16.74a1.74,1.74,0,0,0-2,0q-14.48,8.41-29,16.74a1.57,1.57,0,0,0-.92,1.58q0,16.85,0,33.71a1.5,1.5,0,0,0,.85,1.52q14.73,8.45,29.42,17a1.18,1.18,0,0,0,1.39,0q14.7-8.51,29.42-17a1.51,1.51,0,0,0,.85-1.52C237.73,216,237.75,210.41,237.74,204.81ZM203.63,414.25c2,0,2.06,0,2-1.94,0-.85.28-1.14,1.07-1.12a4.22,4.22,0,0,0,.72-.07c4.94-.72,8.81-3,10.9-7.71a14.88,14.88,0,0,0,1.16-5.11c.32-5.19-.75-9.88-5.16-13.22a14.44,14.44,0,0,0-7.21-2.68c-.6-.07-.9-.18-.89-.9,0-2.07,0-2.07-2.1-2.1H204c-1.71,0-1.75,0-1.74,1.62,0,.9-.16,1.27-1.21,1.36-6,.53-10.53,4.17-12.09,9.54a18.46,18.46,0,0,0-.63,6.17c.39,7.41,4.83,12.16,12.2,13,.88.1,1.13.33,1.1,1.21-.08,1.93,0,1.93,1.87,2Zm83-367.57c.22-.42.28-.57.36-.69,4.27-6.62,8-13.57,11.85-20.41.45-.8,1.35-1.7,1.21-2.39s-1.52-1-2.28-1.54-1.08-.35-1.51.43c-4.47,8-9,16-13.47,24-.58,1-1.84,2.19-1.49,3.1s1.93,1.24,2.94,1.87a1.14,1.14,0,0,0,1.32,0c8.76-4.94,17.9-9.23,26.21-15,0,0,.11,0,.23.07-4.33,6.63-8,13.64-11.9,20.5-.45.79-1.3,1.7-1.17,2.4s1.47.92,2.2,1.46,1.13.4,1.6-.44c4.52-8.13,9.1-16.24,13.65-24.35.5-.9,1.55-1.87,1.31-2.71S316,32,315.17,31.41a1.41,1.41,0,0,0-1.72,0C304.58,36.39,295.38,40.8,286.65,46.68ZM152.43,35.92c-1.75-7.95-4-15.7-6.06-23.52-.68-2.63-.67-2.57-3.32-1.94-1,.25-1.17.61-.9,1.6,2.4,8.81,4.73,17.64,7.09,26.46.3,1.11.29,2.73,1,3.19s2.22-.44,3.38-.64a1.28,1.28,0,0,0,1.1-1.07c2.83-9.62,6.33-19,8.33-28.91.24.09.28.29.32.49,1.45,7.61,3.75,15,5.65,22.51.22.87.16,2.17.86,2.48s1.72-.39,2.62-.53,1-.51.78-1.35c-2.42-9-4.8-18-7.2-26.93-.28-1-.3-2.57-1-3s-2.07.41-3.16.64a1.12,1.12,0,0,0-1,.89c-2.57,8.6-5.55,17.07-7.7,25.79C153,33.39,152.72,34.66,152.43,35.92Zm109.05,341.7c1.59,8.05,3.86,15.62,5.87,23.25.78,3,.76,2.91,3.68,2.16.82-.21.86-.5.67-1.22-2.45-9-4.86-18.09-7.31-27.13-.27-1-.16-2.38-1-2.83s-1.94.4-3,.59a1.28,1.28,0,0,0-1.17,1c-2.52,8.61-5.48,17.09-7.63,25.8-.31,1.27-.58,2.55-.86,3.83-1.73-7.9-4-15.58-6-23.32-.77-2.94-.79-2.9-3.73-2.07-.75.21-.78.48-.6,1.16q4,14.61,7.83,29.23c.19.73.39,1.15,1.27.77a10.07,10.07,0,0,1,2.19-.57,1.73,1.73,0,0,0,1.5-1.41C256,397.22,259.46,387.81,261.48,377.62ZM336.89,67l1.27.35a7.24,7.24,0,0,0,9.35-8,9.54,9.54,0,0,0-2.17-4.73A35.35,35.35,0,0,0,337,47.42c-.58-.38-.86-.21-1.26.24Q325.79,58.87,315.8,70c-.49.55-.46.86,0,1.36a55.57,55.57,0,0,0,5.59,5.24,17.9,17.9,0,0,0,6,3.4,8.61,8.61,0,0,0,11.09-7.19A9.29,9.29,0,0,0,336.89,67ZM135.7,390.42c.12,6,2.52,10.67,8.16,13.19s11.22,2.05,15.91-2.3c4.36-4,6.21-9.35,6.2-15.2a13.55,13.55,0,0,0-9.47-13.3,14.22,14.22,0,0,0-16.16,4.6A21.52,21.52,0,0,0,135.7,390.42ZM251.64,23.19c.36.08.55.12.75.18,4.29,1.24,8.58,2.5,12.88,3.7.83.23,1.06.48.79,1.37C265,32,264,35.56,263,39.13c-.25.88-.88,1.94-.6,2.61s1.69.59,2.54,1c1.11.52,1.44,0,1.74-1,2.51-8.9,5.09-17.79,7.63-26.68.27-.95,1-2.07.62-2.82s-1.8-.6-2.71-1-1.23-.13-1.47.78c-1,3.65-2.08,7.28-3.1,10.93-.18.63-.3.95-1.11.71-4.4-1.31-8.81-2.56-13.23-3.78-.78-.22-.86-.51-.64-1.26.9-3,1.74-6,2.57-9,.28-1,1.1-2.21.65-2.9s-1.87-.63-2.83-1c-.8-.31-1.07-.12-1.3.71-2.57,9.05-5.18,18.1-7.77,27.14-.26.92-1,2-.65,2.71s1.78.61,2.69,1,1.26.26,1.54-.78c1.12-4.16,2.34-8.29,3.55-12.42C251.19,23.74,251.07,23.09,251.64,23.19Zm45.5,369.27c.75-.41,1.38-.75,2-1.1,2-1.16,2.06-1.17,1.65-3.5s-1-4.93-1.36-7.41c-.55-3.47.43-5.45,3.41-7.21.62-.37,1.29-.66,1.86-1.07s.9-.28,1.25.34c1.6,2.9,3.24,5.78,4.87,8.67s1.67,2.95,4.58,1c.5-.33.5-.56.23-1q-7.46-13.18-14.89-26.39c-.36-.64-.71-.56-1.26-.34a43.37,43.37,0,0,0-7.61,3.76,16,16,0,0,0-4,3.55,8.2,8.2,0,0,0-.77,9.41,7.71,7.71,0,0,0,8.17,4c.55-.07,1.09-.2,1.87-.34-2.27,3.08-1.84,6.31-1.24,9.57A51.65,51.65,0,0,1,297.14,392.46ZM122.84,18.16a25.48,25.48,0,0,1-2.78,1.39,3,3,0,0,0-2,2.72c-.84,5.08-1.83,10.13-2.72,15.2a1.25,1.25,0,0,1-1,1.16c-.6.11-.62-.52-.8-.86-1.56-3-3.09-6-4.63-8.93-.46-.88-.78-2.18-1.5-2.48s-1.7.8-2.62,1.13-.92.78-.49,1.59c4.32,8.28,8.6,16.58,12.91,24.87.46.88.68,2.23,1.48,2.49s1.71-.81,2.63-1.15.91-.79.48-1.58c-2-3.7-3.88-7.43-5.79-11.16-.16-.31-.72-.74-.08-1.1,2-1.17,4.18-2,6.61-1.47s4,2,5.7,3.59a65.63,65.63,0,0,0,5.09,4.56c.32.25.62.64,1.15.35,1.13-.62,2.28-1.2,3.52-1.84l-1.68-1.4c-2.72-2.23-5.07-4.88-7.92-7a10,10,0,0,0-7.09-2c-.79.08-1.8.9-2.26.23-.33-.47.23-1.58.41-2.39ZM33.53,226.67c-.46.39-.8.67-1.12,1q-6.31,5.64-12.6,11.29a1.26,1.26,0,0,1-1.57.32c-1.27-.57-2.59-1-3.89-1.56L1.89,232.78c.21,1.21.46,2.25.56,3.31a2,2,0,0,0,1.66,2c4.24,1.35,8.36,3,12.75,4.27a5.27,5.27,0,0,1-.4.44q-5.12,4.25-10.25,8.5c-.44.37-.84.68-.68,1.37.3,1.27.52,2.56.79,4,.32-.24.58-.41.81-.61,4.09-3.59,8.19-7.16,12.24-10.78a1.67,1.67,0,0,1,2-.36c2.59,1,5.21,2,7.83,3l8.88,3.31c-.27-1.5-.51-2.83-.73-4.15-.08-.46-.35-.64-.78-.77-1.45-.44-2.88-.93-4.32-1.41l-9.47-3.16c0-.11,0-.17,0-.19,3-2.62,5.94-5.36,9.09-7.81,1.91-1.48,3-3,1.94-5.36A9.13,9.13,0,0,1,33.53,226.67Zm10.09,50c0,.41-.43.39-.68.5-3,1.24-6.07,2.43-9.09,3.7-.72.3-1,.19-1.28-.54-1.11-2.86-2.29-5.7-3.45-8.55-.89-2.18-.87-2.13-3.09-1.27-.88.34-.9.72-.57,1.5,1.34,3.2,2.6,6.44,3.93,9.64.28.66.22,1-.48,1.23Q25,284.4,21.15,286c-.67.28-.94.18-1.21-.51-1.18-3-2.43-6.07-3.65-9.1C15.35,274,15.38,274.1,13,275c-.86.32-.86.65-.55,1.38,1.91,4.65,3.81,9.3,5.64,14,.39,1,.73,1.21,1.76.79q13.84-5.67,27.73-11.23c.76-.31.94-.55.61-1.34-1.89-4.57-3.72-9.16-5.58-13.75-.9-2.22-.9-2.19-3.18-1.29-.76.3-.93.59-.59,1.39,1.52,3.64,3,7.32,4.45,11Zm344.21-4.46.66.23c2.57,1,5.12,2,7.71,3,.85.31.86.64.57,1.38-1.2,3-2.32,6-3.48,9-.91,2.35-.9,2.32,1.47,3.25.73.28,1,.17,1.27-.56,1.81-4.81,3.64-9.62,5.54-14.4.35-.89.12-1.16-.67-1.46q-14-5.36-28-10.79c-.93-.36-1.18-.12-1.49.72-1.69,4.52-3.44,9-5.17,13.52-.94,2.43-.92,2.39,1.51,3.32.73.28.94.11,1.19-.56,1.4-3.73,2.87-7.44,4.27-11.17.28-.76.55-1,1.36-.63q4.44,1.79,8.94,3.42c.83.3.87.65.57,1.4-1.13,2.81-2.19,5.65-3.28,8.48-.84,2.19-.83,2.16,1.35,3,.77.31,1.13.29,1.45-.61,1.19-3.3,2.5-6.56,3.77-9.83C387.46,272.68,387.43,272.23,387.84,272.22ZM66.12,80.29a4.76,4.76,0,0,0-.4-.43c-.52-.44-1.07-.84-1.56-1.31s-.79-.38-1.21.14c-2.23,2.77-4.53,5.48-6.76,8.25-.5.63-.81.61-1.38.13-2.1-1.78-4.22-3.56-6.38-5.26-.65-.51-.58-.82-.11-1.37,2.11-2.51,4.18-5,6.26-7.58,1.58-1.92,1.54-1.88-.35-3.49-.67-.57-1-.45-1.48.16q-4.88,6-9.83,11.94c-.52.62-.46.9.15,1.4q11.73,9.6,23.41,19.28c.62.51.9.46,1.38-.14,3.1-3.81,6.24-7.6,9.36-11.39,1.62-2,1.6-1.94-.38-3.57-.63-.52-.93-.42-1.41.17-2.49,3.08-5,6.1-7.51,9.19-.54.67-.84.8-1.55.18-2.42-2.09-4.9-4.11-7.4-6.1-.64-.51-.58-.82-.11-1.38,2.26-2.7,4.47-5.42,6.71-8.14Zm310.13,9.19-.48-.64c-3.12-4.1-6.25-8.2-9.33-12.33-.5-.68-.81-.71-1.48-.2q-12,9.17-24,18.27c-.66.5-.72.82-.19,1.49,3,3.88,6,7.81,8.94,11.72,1.47,1.94,1.44,1.9,3.38.5.79-.57.73-1,.18-1.66-2.43-3.12-4.79-6.3-7.21-9.42-.44-.57-.46-.84.17-1.3Q350.09,93,353.9,90c.71-.56,1-.37,1.46.25,1.78,2.41,3.62,4.78,5.42,7.17,1.5,2,1.47,1.95,3.44.48.69-.51.68-.84.18-1.48-2.11-2.71-4.15-5.48-6.27-8.17-.6-.75-.48-1.11.25-1.64,2.17-1.57,4.29-3.2,6.39-4.86.63-.5.94-.43,1.4.2,1.93,2.6,3.9,5.16,5.86,7.74,1.75,2.29,1.75,2.29,3.89.27C376.06,89.85,376.28,89.77,376.26,89.48Zm17,32a21.6,21.6,0,0,0-.32-2.14c-.9-3.84-2.93-7.13-5-10.39-.49-.76-.89-.86-1.71-.45-8.22,4.08-16.46,8.12-24.69,12.18-.92.45-2.32.63-2.61,1.48s.79,1.81,1.13,2.78.72.79,1.41.44c3.28-1.65,6.59-3.24,9.87-4.89.6-.3.83-.25,1.06.42a17.28,17.28,0,0,0,4.27,7,9.62,9.62,0,0,0,16.61-6.41ZM44,113.43c3.28,1.74,6.37,3.4,9.47,5,.88.46,1.89,1.36,2.64,1.19s1-1.68,1.6-2.51.31-1.08-.47-1.49q-12.52-6.57-25-13.22c-.87-.46-1.91-1.39-2.62-1.19s-1,1.69-1.59,2.53-.3,1.09.47,1.49c3.94,2,7.84,4.14,11.76,6.2.57.3,1,.58,1,1.33A12.23,12.23,0,0,1,38.77,120a5.48,5.48,0,0,1-6.31,2,14.59,14.59,0,0,1-2.31-1c-2-1-3.87-2.08-5.83-3.07-1-.49-2.07-1.66-2.91-1.29s-1.13,1.83-1.69,2.79c-.27.46-.28.73.27,1,3.3,1.71,6.53,3.54,9.87,5.16,4.93,2.4,9.14,1,11.95-3.71A15.51,15.51,0,0,0,44,113.43ZM93.56,371.78a13.36,13.36,0,0,0,2.58,8.07c2.65,3.68,6.36,5.87,10.54,7.36,2.81,1,2.93.91,3.66-1.92.15-.58,0-.72-.57-.84a17.21,17.21,0,0,1-8-4,10.42,10.42,0,0,1-3.7-9.75,16.39,16.39,0,0,1,5.57-9.93,10.57,10.57,0,0,1,8.73-2.8,15.74,15.74,0,0,1,9,4.71c.57.55.85,1.77,1.66,1.6s1.33-1.08,2-1.63c.44-.35.45-.63.09-1.07a19.18,19.18,0,0,0-3.94-3.65c-4.06-2.87-8.5-4.49-13.52-3.5C99.87,355.89,93.56,363.8,93.56,371.78ZM404.94,164.65c0,2.59,0,2.59,2.29,2.64a2.79,2.79,0,0,1,.36,0c.61.09.86-.15.88-.78.21-5.56-1.06-10.66-4.9-14.84-4.56-5-11.57-6.19-18.71-3.45-5.3,2-8.91,5.6-9.9,11.34-.78,4.55.45,8.8,2.47,12.84,1.31,2.63,1.48,2.62,4,1.14.56-.33.5-.54.18-1a17.53,17.53,0,0,1-2.74-6.46,11.17,11.17,0,0,1,6.55-13.3,20,20,0,0,1,5.39-1.55,11.48,11.48,0,0,1,12.59,6.47A15.38,15.38,0,0,1,404.94,164.65ZM103.09,61.4A17.75,17.75,0,0,1,96.75,68c-3.89,2.35-7.87,2.56-11.77.12a16.53,16.53,0,0,1-7.09-9.06,10.11,10.11,0,0,1-.19-6C78.92,48.68,82,46,85.88,44c.7-.36,1.91-.3,2.05-.95s-.56-1.52-.79-2.31-.65-.85-1.33-.58a21.38,21.38,0,0,0-8.89,6.52A14.66,14.66,0,0,0,73.42,57c.41,6.75,4,11.6,9.53,15.05a13.1,13.1,0,0,0,11.42,1.19c4.31-1.41,7.52-4.29,10.23-7.8,1.43-1.85,1.39-1.88-.51-3.31ZM208.35.51a2.28,2.28,0,0,0,.37,1.26c2.63,6.42,5.11,12.91,8,19.22,1.26,2.76.69,4.68-1.19,6.63-.17.17-.31.37-.48.53a5.78,5.78,0,0,1-4.18,1.8c-1.75,0-1.75-.06-2,1.63a3.3,3.3,0,0,1-.11.71c-.3.72.1.92.69,1a8.59,8.59,0,0,0,6.75-1.28,16.1,16.1,0,0,0,4.54-5.19c2.53-4.13,4.51-8.54,6.63-12.88,1.9-3.9,3.79-7.81,5.71-11.78a21.35,21.35,0,0,0-3.26-.34,1.18,1.18,0,0,0-1.53.86c-.69,1.7-1.47,3.37-2.2,5l-5.62,12.78c-.4-.15-.36-.54-.45-.82-2-6.14-4.49-12.11-6.75-18.15-.15-.39-.17-.87-.8-.87A38.61,38.61,0,0,0,208.35.51Zm147,296.36a5,5,0,0,0-.41.5c-.51.81-1,1.65-1.53,2.43-.36.51-.21.73.26,1,1,.58,2,1.22,3,1.83,6.57,4.1,13.14,8.21,19.73,12.27.79.49,1.05.83.45,1.7-1.18,1.71-2.22,3.51-3.32,5.27-1.29,2.07-1.26,2,.77,3.39.75.5,1.07.44,1.54-.33,3.54-5.75,7.12-11.46,10.69-17.19,1.38-2.21,1.36-2.18-.8-3.57-.65-.42-1-.39-1.37.3-1.33,2.23-2.78,4.38-4.09,6.63-.47.81-.79.79-1.51.34q-11.26-7.08-22.55-14.09Zm56-64.75c.2-.47-.14-.59-.52-.66a15.63,15.63,0,0,1-1.76-.34c-1-.31-1.22.18-1.35,1-.4,2.44-.87,4.87-1.25,7.31-.14.87-.43,1.18-1.38,1-8-1.46-15.93-2.88-23.9-4.3-1-.19-2.39-.92-3.07-.34s-.44,2-.74,3c-.23.79.09.94.75,1.05,2.95.5,5.89,1,8.83,1.57l17.67,3.15c.61.11.87.26.71,1-.45,2.1-.75,4.24-1.16,6.35-.49,2.55-.5,2.49,2,3,.87.17,1.08-.05,1.22-.86.58-3.46,1.23-6.91,1.85-10.36C410.07,239.87,410.75,236,411.44,232.13ZM61.62,302.6l-.31-.51a23.64,23.64,0,0,1-1.29-2c-.42-.82-.79-.8-1.54-.32-7.36,4.8-14.76,9.54-22.13,14.34-.79.52-1.19.6-1.72-.32-1-1.79-2.23-3.5-3.35-5.25-1.33-2.07-1.3-2-3.4-.74-.77.47-.84.78-.34,1.55,3.67,5.62,7.3,11.27,10.93,16.91,1.51,2.34,1.48,2.32,3.78.75.61-.42.53-.7.19-1.22q-1.57-2.34-3.06-4.73c-.57-.9-1.71-1.85-1.5-2.71s1.56-1.22,2.43-1.78l20.53-13.27C61.11,303.11,61.51,303,61.62,302.6Z" transform="translate(-0.22 -0.22)"/><path class="cls-2" d="M413,212.4c-4.16.1-8.31.18-12.47.3-6.23.19-12.47.39-18.7.65-1,0-1.25-.27-1.25-1.24,0-2.75,0-2.76,2.71-2.81,7.87-.15,15.73-.69,23.62-.42,0-.13,0-.25,0-.27-7.67-3.45-14.73-8-22-12.19-1.35-.78-2.68-1.59-4-2.34a1.39,1.39,0,0,1-.85-1.41,20,20,0,0,0-.1-2.63c-.08-.74.16-.93.91-1,3.92-.09,7.83-.26,11.75-.38,6.15-.19,12.31-.35,18.46-.58,1,0,1.19.27,1.22,1.18.07,2.72.11,2.77-2.64,2.83-8,.17-15.9.7-23.86.38-.14,0-.28,0-.51,0,.14.16.19.28.29.32,8.92,4.07,17.09,9.5,25.61,14.29.9.5,1.74,1,1.89,2.12Z" transform="translate(-0.22 -0.22)"/><path class="cls-2" d="M.24,209.52s.09,0,.1-.07c.08-.57,0-1.44.28-1.66.6-.42,1.46-.11,2.21-.08,3.4.11,6.79.22,10.18.38.7,0,1-.11,1-.89q.17-6.83.46-13.66c0-.84-.2-1.06-1-1.08-3.8-.08-7.59-.25-11.38-.34-.8,0-1.16-.22-1-1.08.14-1-.3-2.4.37-3s1.9-.15,2.89-.12c9.43.31,18.85.64,28.28.93.7,0,.9.24.84.9-.1,1.07.36,2.43-.28,3.13S31,193,30,193q-5.39-.1-10.79-.32c-.81,0-1.12.15-1.14,1-.11,4.59-.25,9.19-.44,13.78,0,1,.59.77,1.09.79,4.15.14,8.31.31,12.46.36,1.25,0,1.59.38,1.51,1.62-.16,2.69-.09,2.71-2.85,2.62l-29-1c-.2,0-.4,0-.6,0Q.24,210.72.24,209.52Z" transform="translate(-0.22 -0.22)"/><path class="cls-3" d="M222.14,160.16,236.29,152q7.92-4.58,15.85-9.16a1.66,1.66,0,0,1,1.93,0q14.58,8.48,29.22,16.85c.93.53.83,1.23.83,2q0,69.72,0,139.43a2.74,2.74,0,0,1-1.6,2.78q-37.38,21.5-74.7,43.11a1.84,1.84,0,0,1-2.14,0q-37.64-21.78-75.31-43.5a1.57,1.57,0,0,1-1-1.57c0-11.12,0-22.24,0-33.36,0-1.42,0-1.42,1.19-.74q37.51,21.65,75,43.33a1.9,1.9,0,0,0,2.22,0q22.1-12.81,44.24-25.53a1.69,1.69,0,0,0,1-1.69q0-52.38,0-104.75a1.77,1.77,0,0,0-1-1.77q-14.37-8.25-28.71-16.56Z" transform="translate(-0.22 -0.22)"/><path class="cls-3" d="M237.75,240.4c0,2.38,0,4.53,0,6.69,0,9.28,0,18.56,0,27.84a1.77,1.77,0,0,1-1,1.81q-14.53,8.33-29,16.74a1.67,1.67,0,0,1-1.92,0q-53.49-30.93-107-61.82c-4.9-2.83-9.8-5.68-14.73-8.47a1.75,1.75,0,0,1-1-1.77q0-43.44,0-86.88a1.66,1.66,0,0,1,.91-1.72q37.84-21.79,75.64-43.64c.45-.26.81-.49,1.4-.14q15,8.71,30,17.37c.07,0,.11.12.25.27l-6.89,4q-34.65,20-69.32,40a1.68,1.68,0,0,0-1,1.7q0,25.62,0,51.24c0,1.09.55,1.44,1.29,1.86l74.09,42.75c5.35,3.09,10.72,6.15,16,9.3a2.14,2.14,0,0,0,2.54,0q14.21-8.28,28.47-16.48C236.87,240.85,237.22,240.68,237.75,240.4Z" transform="translate(-0.22 -0.22)"/><path class="cls-3" d="M299.46,240.38v-1.52q0-43.07,0-86.15a2.12,2.12,0,0,0-1.21-2.15Q276.13,137.84,254,125a1.56,1.56,0,0,0-1.82,0q-45.31,26.19-90.64,52.33a1.83,1.83,0,0,0-1.09,1.84c0,11.08,0,22.16,0,33.23,0,1.34,0,1.34-1.13.69q-14.5-8.37-29-16.73a1.59,1.59,0,0,1-.93-1.59q0-16.8,0-33.59a1.68,1.68,0,0,1,1-1.66q45.23-26.09,90.44-52.2,15.59-9,31.17-18a1.84,1.84,0,0,1,2.14,0q35.1,20.3,70.22,40.57c1.76,1,3.51,2.07,5.29,3a1.29,1.29,0,0,1,.75,1.32q0,43.73,0,87.47a1.21,1.21,0,0,1-.64,1.26q-14.89,8.55-29.75,17.15A4.6,4.6,0,0,1,299.46,240.38Z" transform="translate(-0.22 -0.22)"/><path class="cls-3" d="M237.75,204.81c0,5.6,0,11.2,0,16.79a1.51,1.51,0,0,1-.85,1.52q-14.73,8.46-29.42,17a1.18,1.18,0,0,1-1.39,0q-14.69-8.51-29.42-17a1.5,1.5,0,0,1-.85-1.52q0-16.85,0-33.71a1.57,1.57,0,0,1,.92-1.58q14.53-8.33,29-16.74a1.74,1.74,0,0,1,2,0q14.47,8.41,29,16.74a1.67,1.67,0,0,1,1,1.68C237.73,193.61,237.74,199.21,237.75,204.81Z" transform="translate(-0.22 -0.22)"/><path class="cls-2" d="M203.63,414.25h-.12c-1.89,0-1.94,0-1.87-2,0-.88-.21-1.11-1.1-1.21-7.37-.82-11.81-5.58-12.2-13a18.46,18.46,0,0,1,.63-6.17c1.56-5.38,6.1-9,12.09-9.54,1-.09,1.22-.46,1.21-1.36,0-1.65,0-1.65,1.74-1.62h.12c2.1,0,2.14,0,2.1,2.1,0,.72.29.83.89.9a14.44,14.44,0,0,1,7.21,2.68c4.41,3.34,5.48,8,5.16,13.22a14.88,14.88,0,0,1-1.16,5.11c-2.09,4.75-6,7-10.9,7.71a4.22,4.22,0,0,1-.72.07c-.78,0-1.08.27-1.07,1.12C205.69,414.28,205.64,414.28,203.63,414.25Zm2.52-17.41h-.25c0,1.76,0,3.52,0,5.27s0,3.52-.11,5.27c0,.69.1.94.83.82a9.21,9.21,0,0,0,7.45-5.5,15.48,15.48,0,0,0,.88-9.28c-.81-4.37-3.47-7.14-7.44-7.94-.85-.17-1.45-.25-1.41,1.05C206.22,390,206.15,393.4,206.15,396.84Zm-4.36-.14h.31c0-3.52,0-7,0-10.56,0-.72-.1-1-.92-.83a9.26,9.26,0,0,0-7.76,6.47,15.27,15.27,0,0,0-.38,8.86,9.49,9.49,0,0,0,7.65,7.38c.89.2,1.1,0,1.09-.89C201.77,403.66,201.79,400.18,201.79,396.7Z" transform="translate(-0.22 -0.22)"/><path class="cls-2" d="M286.65,46.68c8.73-5.88,17.93-10.29,26.8-15.28a1.41,1.41,0,0,1,1.72,0c.85.59,2.29.81,2.53,1.65s-.8,1.81-1.31,2.71c-4.55,8.12-9.13,16.22-13.65,24.35-.47.84-.83,1-1.6.44s-2.06-.72-2.2-1.46.72-1.61,1.17-2.4c3.92-6.86,7.57-13.87,11.9-20.5-.12,0-.2-.09-.23-.07-8.31,5.73-17.44,10-26.21,15a1.14,1.14,0,0,1-1.32,0c-1-.63-2.6-1-2.94-1.87s.91-2.06,1.49-3.1c4.48-8,9-16,13.47-24,.44-.78.79-1,1.51-.43s2.12.73,2.28,1.54-.76,1.59-1.21,2.39C295,32.42,291.28,39.37,287,46,286.92,46.11,286.87,46.25,286.65,46.68Z" transform="translate(-0.22 -0.22)"/><path class="cls-2" d="M152.43,35.92c.29-1.26.57-2.53.88-3.79,2.15-8.72,5.14-17.19,7.7-25.79a1.12,1.12,0,0,1,1-.89c1.08-.23,2.37-1.1,3.16-.64s.69,1.92,1,3c2.4,9,4.77,18,7.2,26.93.23.84.12,1.21-.78,1.35s-1.95.81-2.62.53-.64-1.61-.86-2.48c-1.9-7.5-4.2-14.9-5.65-22.51,0-.19-.07-.4-.32-.49-2,9.86-5.5,19.29-8.33,28.91a1.28,1.28,0,0,1-1.1,1.07c-1.17.2-2.54,1.18-3.38.64s-.72-2.08-1-3.19c-2.36-8.82-4.7-17.65-7.09-26.46-.27-1-.14-1.35.9-1.6,2.64-.63,2.64-.69,3.32,1.94C148.38,20.22,150.68,28,152.43,35.92Z" transform="translate(-0.22 -0.22)"/><path class="cls-2" d="M261.48,377.62c-2,10.18-5.48,19.59-8.28,29.2a1.73,1.73,0,0,1-1.5,1.41,10.07,10.07,0,0,0-2.19.57c-.88.38-1.08,0-1.27-.77q-3.89-14.62-7.83-29.23c-.18-.68-.15-.94.6-1.16,2.95-.84,3-.88,3.73,2.07,2,7.75,4.31,15.43,6,23.32.29-1.28.55-2.56.86-3.83,2.16-8.71,5.12-17.19,7.63-25.8a1.28,1.28,0,0,1,1.17-1c1-.19,2.14-1,3-.59s.71,1.84,1,2.83c2.45,9,4.86,18.09,7.31,27.13.2.72.16,1-.67,1.22-2.92.75-2.9.8-3.68-2.16C265.34,393.24,263.07,385.68,261.48,377.62Z" transform="translate(-0.22 -0.22)"/><path class="cls-2" d="M15.58,146.42c1.55,1.49,3.14,2.94,4.66,4.46C25.8,156.46,31,162.4,36.37,168.14a1.2,1.2,0,0,1,.35,1.28c-.28,1-.53,1.92-.77,2.89-.14.58-.38.69-1,.52q-14.77-4-29.56-8c-.64-.17-.78-.4-.61-1.06.78-3,.76-3,3.74-2.21,7.45,2.08,15,3.89,22.31,6.38a4.27,4.27,0,0,0,.55.11c.11-.32-.12-.41-.24-.52-7.51-6.75-13.94-14.53-20.9-21.81a1.09,1.09,0,0,1-.21-1.29c.34-1,.31-2.46,1-3s2,.32,3,.59c9,2.4,17.94,4.85,26.92,7.23.93.25,1.06.56.8,1.45-.78,2.68-.74,2.68-3.42,2-7.58-2.07-15.2-4-22.66-6.42-.1-.11-.21-.17-.34,0Z" transform="translate(-0.22 -0.22)"/><path class="cls-2" d="M336.89,67a9.29,9.29,0,0,1,1.63,5.9A8.61,8.61,0,0,1,327.42,80a17.9,17.9,0,0,1-6-3.4,55.57,55.57,0,0,1-5.59-5.24c-.48-.51-.52-.81,0-1.36q10-11.16,19.93-22.37c.4-.45.68-.62,1.26-.24a35.35,35.35,0,0,1,8.34,7.13,9.54,9.54,0,0,1,2.17,4.73,7.24,7.24,0,0,1-9.35,8ZM329,76.53c.21,0,.45,0,.69-.06a5.88,5.88,0,0,0,4.45-8.27c-1.12-2.51-3.26-4.09-5.2-5.86-.45-.41-.63,0-.85.24-2.42,2.71-4.83,5.44-7.27,8.13-.44.49-.2.74.12,1.06a23.11,23.11,0,0,0,3.6,3.15A8.53,8.53,0,0,0,329,76.53Zm9.46-12.15A4.93,4.93,0,0,0,343,57.09a15.42,15.42,0,0,0-4.86-4.87c-.53-.39-.77,0-1.07.31-1.22,1.38-2.47,2.72-3.66,4.12-.87,1-2.59,2-2.39,3s1.85,1.94,2.92,2.83A7.1,7.1,0,0,0,338.45,64.39Z" transform="translate(-0.22 -0.22)"/><path class="cls-2" d="M135.7,390.42a21.52,21.52,0,0,1,4.64-13,14.22,14.22,0,0,1,16.16-4.6,13.55,13.55,0,0,1,9.47,13.3c0,5.85-1.85,11.15-6.2,15.2-4.69,4.36-10.2,4.86-15.91,2.3S135.82,396.38,135.7,390.42Zm25.86-4.08a13.38,13.38,0,0,0-.28-3c-.75-3.59-2.69-6.21-6.23-7.41a9,9,0,0,0-9.63,2.19,17.46,17.46,0,0,0-5.25,11.74,12.94,12.94,0,0,0,.47,4.62,9.33,9.33,0,0,0,15.79,4.25C159.9,395.36,161.33,391.08,161.56,386.33Z" transform="translate(-0.22 -0.22)"/><path class="cls-2" d="M251.64,23.19c-.57-.1-.45.55-.54.88-1.22,4.13-2.44,8.26-3.55,12.42-.28,1-.66,1.16-1.54.78s-2.32-.21-2.69-1,.39-1.79.65-2.71c2.6-9,5.21-18.09,7.77-27.14.23-.82.5-1,1.3-.71,1,.38,2.39.34,2.83,1s-.37,1.92-.65,2.9c-.83,3-1.67,6-2.57,9-.23.74-.14,1,.64,1.26,4.42,1.23,8.83,2.48,13.23,3.78.81.24.94-.08,1.11-.71,1-3.65,2.11-7.28,3.1-10.93.25-.91.58-1.16,1.47-.78s2.3.23,2.71,1-.35,1.87-.62,2.82c-2.54,8.9-5.11,17.78-7.63,26.68-.3,1-.63,1.53-1.74,1-.85-.39-2.21-.2-2.54-1s.35-1.73.6-2.61c1-3.57,2-7.14,3.07-10.69.27-.88,0-1.13-.79-1.37-4.3-1.2-8.59-2.46-12.88-3.7C252.19,23.31,252,23.28,251.64,23.19Z" transform="translate(-0.22 -0.22)"/><path class="cls-2" d="M297.14,392.46a51.65,51.65,0,0,0-1.25-8.11c-.6-3.26-1-6.49,1.24-9.57-.78.14-1.32.28-1.87.34a7.71,7.71,0,0,1-8.17-4,8.2,8.2,0,0,1,.77-9.41,16,16,0,0,1,4-3.55,43.37,43.37,0,0,1,7.61-3.76c.54-.21.9-.29,1.26.34q7.41,13.21,14.89,26.39c.27.48.27.71-.23,1-2.91,1.92-2.9,1.94-4.58-1s-3.27-5.76-4.87-8.67c-.34-.63-.62-.8-1.25-.34s-1.25.71-1.86,1.07c-3,1.76-4,3.75-3.41,7.21.39,2.48.93,4.94,1.36,7.41s.38,2.34-1.65,3.5C298.52,391.71,297.89,392,297.14,392.46Zm-1.34-20.3c3,0,5.33-1.59,7.68-3,.38-.23.29-.47.11-.79q-2.56-4.52-5.11-9.06c-.19-.34-.36-.56-.84-.38a15.67,15.67,0,0,0-6,3.74,5.16,5.16,0,0,0-1,6.07A5.46,5.46,0,0,0,295.8,372.15Z" transform="translate(-0.22 -0.22)"/><path class="cls-2" d="M122.84,18.16l-3.41,15.91c-.18.82-.74,1.92-.41,2.39.47.67,1.47-.16,2.26-.23a10,10,0,0,1,7.09,2c2.85,2.09,5.2,4.74,7.92,7l1.68,1.4c-1.24.65-2.39,1.23-3.52,1.84-.53.29-.83-.1-1.15-.35a65.63,65.63,0,0,1-5.09-4.56c-1.67-1.57-3.37-3.08-5.7-3.59s-4.56.31-6.61,1.47c-.63.36-.08.79.08,1.1,1.91,3.73,3.82,7.46,5.79,11.16.42.8.47,1.23-.48,1.58s-1.85,1.4-2.63,1.15-1-1.61-1.48-2.49c-4.31-8.29-8.59-16.59-12.91-24.87-.42-.81-.44-1.25.49-1.59s1.88-1.45,2.62-1.13,1,1.6,1.5,2.48c1.55,3,3.08,6,4.63,8.93.18.34.19,1,.8.86a1.25,1.25,0,0,0,1-1.16c.9-5.07,1.89-10.12,2.72-15.2a3,3,0,0,1,2-2.72A25.48,25.48,0,0,0,122.84,18.16Z" transform="translate(-0.22 -0.22)"/><path class="cls-2" d="M33.53,226.67a9.13,9.13,0,0,0,.33,1.6c1,2.41,0,3.88-1.94,5.36-3.15,2.45-6.07,5.19-9.09,7.81,0,0,0,.08,0,.19l9.47,3.16c1.44.48,2.87,1,4.32,1.41.43.13.7.32.78.77.23,1.32.47,2.64.73,4.15l-8.88-3.31c-2.61-1-5.23-1.95-7.83-3a1.67,1.67,0,0,0-2,.36c-4.05,3.62-8.15,7.2-12.24,10.78-.23.2-.49.37-.81.61-.27-1.4-.49-2.69-.79-4-.16-.69.23-1,.68-1.37q5.13-4.24,10.25-8.5a5.27,5.27,0,0,0,.4-.44c-4.39-1.24-8.52-2.92-12.75-4.27a2,2,0,0,1-1.66-2c-.1-1.06-.35-2.11-.56-3.31l12.47,4.89c1.3.51,2.61,1,3.89,1.56a1.26,1.26,0,0,0,1.57-.32q6.28-5.67,12.6-11.29C32.74,227.33,33.07,227.06,33.53,226.67Z" transform="translate(-0.22 -0.22)"/><path class="cls-2" d="M43.62,276.68l-.32-.81c-1.48-3.66-2.93-7.33-4.45-11-.33-.79-.17-1.09.59-1.39,2.28-.9,2.27-.93,3.18,1.29,1.86,4.58,3.69,9.18,5.58,13.75.33.8.15,1-.61,1.34q-13.88,5.57-27.73,11.23c-1,.42-1.37.2-1.76-.79-1.83-4.68-3.73-9.34-5.64-14-.3-.73-.31-1.06.55-1.38,2.36-.87,2.34-.92,3.28,1.44,1.22,3,2.47,6.06,3.65,9.1.27.69.53.79,1.21.51q3.86-1.62,7.76-3.14c.69-.27.75-.57.48-1.23-1.34-3.2-2.6-6.44-3.93-9.64-.32-.77-.31-1.16.57-1.5,2.22-.86,2.2-.91,3.09,1.27,1.16,2.84,2.34,5.68,3.45,8.55.28.73.56.84,1.28.54,3-1.27,6.06-2.46,9.09-3.7C43.19,277.08,43.6,277.09,43.62,276.68Z" transform="translate(-0.22 -0.22)"/><path class="cls-2" d="M387.84,272.22c-.41,0-.38.45-.49.75-1.27,3.27-2.58,6.53-3.77,9.83-.33.91-.68.92-1.45.61-2.18-.88-2.19-.85-1.35-3,1.08-2.83,2.14-5.67,3.28-8.48.3-.75.26-1.09-.57-1.4q-4.5-1.64-8.94-3.42c-.81-.33-1.07-.12-1.36.63-1.4,3.73-2.87,7.44-4.27,11.17-.25.67-.46.84-1.19.56-2.43-.93-2.44-.89-1.51-3.32,1.73-4.5,3.49-9,5.17-13.52.31-.84.56-1.09,1.49-.72q14,5.45,28,10.79c.78.3,1,.57.67,1.46-1.9,4.78-3.73,9.59-5.54,14.4-.28.73-.55.84-1.27.56-2.37-.93-2.38-.89-1.47-3.25,1.16-3,2.29-6,3.48-9,.3-.74.28-1.08-.57-1.38-2.59-.93-5.14-2-7.71-3Z" transform="translate(-0.22 -0.22)"/><path class="cls-2" d="M66.12,80.29l-.56.68c-2.23,2.72-4.45,5.44-6.71,8.14-.47.56-.53.87.11,1.38,2.5,2,5,4,7.4,6.1.72.62,1,.49,1.55-.18,2.48-3.08,5-6.11,7.51-9.19.48-.59.78-.69,1.41-.17,2,1.63,2,1.6.38,3.57C74.1,94.42,71,98.2,67.86,102c-.48.59-.77.65-1.38.14Q54.8,92.48,43.07,82.88c-.61-.5-.66-.78-.15-1.4q5-5.93,9.83-11.94c.5-.62.81-.74,1.48-.16,1.89,1.61,1.93,1.58.35,3.49-2.08,2.53-4.15,5.07-6.26,7.58-.47.55-.54.86.11,1.37,2.17,1.7,4.28,3.47,6.38,5.26.57.49.88.5,1.38-.13,2.22-2.77,4.52-5.49,6.76-8.25.43-.53.71-.61,1.21-.14s1,.87,1.56,1.31A4.76,4.76,0,0,1,66.12,80.29Z" transform="translate(-0.22 -0.22)"/><path class="cls-2" d="M376.26,89.48c0,.29-.19.37-.33.5-2.14,2-2.15,2-3.89-.27-2-2.57-3.94-5.14-5.86-7.74-.46-.62-.77-.7-1.4-.2-2.1,1.66-4.22,3.29-6.39,4.86-.74.54-.85.89-.25,1.64,2.13,2.7,4.16,5.47,6.27,8.17.5.64.51,1-.18,1.48-2,1.47-1.95,1.5-3.44-.48-1.81-2.39-3.64-4.76-5.42-7.17-.46-.61-.76-.81-1.46-.25q-3.8,3-7.72,5.88c-.63.46-.6.73-.17,1.3,2.42,3.13,4.78,6.3,7.21,9.42.55.71.61,1.09-.18,1.66-1.94,1.4-1.91,1.44-3.38-.5-3-3.91-5.93-7.84-8.94-11.72-.52-.67-.46-1,.19-1.49q12-9.1,24-18.27c.66-.51,1-.48,1.48.2,3.08,4.13,6.22,8.22,9.33,12.33Z" transform="translate(-0.22 -0.22)"/><path class="cls-2" d="M393.28,121.52a9.62,9.62,0,0,1-16.61,6.41,17.28,17.28,0,0,1-4.27-7c-.23-.67-.46-.72-1.06-.42-3.28,1.65-6.59,3.24-9.87,4.89-.69.35-1.11.41-1.41-.44s-1.42-1.93-1.13-2.78,1.69-1,2.61-1.48c8.23-4.06,16.47-8.09,24.69-12.18.82-.41,1.22-.3,1.71.45,2.11,3.26,4.13,6.55,5,10.39A21.6,21.6,0,0,1,393.28,121.52Zm-3.72-1.68c-.06-1.77-1.39-4-2.76-6.21-.33-.53-.69-.36-1.11-.15-3.25,1.61-6.5,3.22-9.77,4.79-.55.26-.72.57-.52,1.11a14.91,14.91,0,0,0,3.09,5.49,6.08,6.08,0,0,0,7.12,1.44C388.27,125.22,389.6,123.36,389.56,119.84Z" transform="translate(-0.22 -0.22)"/><path class="cls-2" d="M44,113.43a15.51,15.51,0,0,1-2.18,8.47c-2.81,4.74-7,6.11-11.95,3.71-3.34-1.62-6.57-3.46-9.87-5.16-.55-.28-.54-.55-.27-1,.56-1,.88-2.43,1.69-2.79s1.93.8,2.91,1.29c2,1,3.88,2.06,5.83,3.07a14.59,14.59,0,0,0,2.31,1,5.48,5.48,0,0,0,6.31-2,12.23,12.23,0,0,0,2.45-7.25c0-.75-.39-1-1-1.33-3.92-2.06-7.83-4.16-11.76-6.2-.77-.4-1-.71-.47-1.49s.74-2.3,1.59-2.53,1.75.73,2.62,1.19q12.49,6.61,25,13.22c.78.41,1,.73.47,1.49s-.72,2.3-1.6,2.51-1.76-.72-2.64-1.19C50.36,116.82,47.27,115.17,44,113.43Z" transform="translate(-0.22 -0.22)"/><path class="cls-2" d="M93.56,371.78c0-8,6.3-15.89,14-17.41,5-1,9.46.63,13.52,3.5a19.18,19.18,0,0,1,3.94,3.65c.36.45.35.72-.09,1.07-.68.55-1.26,1.47-2,1.63s-1.09-1-1.66-1.6a15.74,15.74,0,0,0-9-4.71,10.57,10.57,0,0,0-8.73,2.8A16.39,16.39,0,0,0,98,370.65a10.42,10.42,0,0,0,3.7,9.75,17.21,17.21,0,0,0,8,4c.58.12.72.25.57.84-.73,2.83-.85,2.93-3.66,1.92-4.18-1.49-7.89-3.67-10.54-7.36A13.36,13.36,0,0,1,93.56,371.78Z" transform="translate(-0.22 -0.22)"/><path class="cls-2" d="M404.94,164.65a15.38,15.38,0,0,0-1.56-6.9,11.48,11.48,0,0,0-12.59-6.47,20,20,0,0,0-5.39,1.55,11.17,11.17,0,0,0-6.55,13.3,17.53,17.53,0,0,0,2.74,6.46c.32.44.38.65-.18,1-2.5,1.49-2.68,1.49-4-1.14-2-4-3.25-8.29-2.47-12.84,1-5.74,4.6-9.31,9.9-11.34,7.14-2.74,14.15-1.5,18.71,3.45,3.84,4.18,5.11,9.28,4.9,14.84,0,.63-.28.87-.88.78a2.79,2.79,0,0,0-.36,0C404.92,167.24,404.92,167.24,404.94,164.65Z" transform="translate(-0.22 -0.22)"/><path class="cls-2" d="M103.09,61.4l1,.74c1.9,1.43,1.94,1.46.51,3.31-2.71,3.51-5.93,6.38-10.23,7.8a13.1,13.1,0,0,1-11.42-1.19c-5.57-3.45-9.12-8.3-9.53-15.05A14.66,14.66,0,0,1,76.93,46.7a21.38,21.38,0,0,1,8.89-6.52c.68-.27,1.09-.22,1.33.58s.95,1.64.79,2.31-1.35.59-2.05.95c-3.88,2-7,4.66-8.18,9a10.11,10.11,0,0,0,.19,6A16.53,16.53,0,0,0,85,68.14c3.91,2.43,7.89,2.23,11.77-.12A17.75,17.75,0,0,0,103.09,61.4Z" transform="translate(-0.22 -0.22)"/><path class="cls-2" d="M208.35.51a38.61,38.61,0,0,1,4.06.18c.63,0,.66.48.8.87,2.26,6,4.75,12,6.75,18.15.09.28.05.66.45.82L226,7.76c.74-1.68,1.52-3.34,2.2-5a1.18,1.18,0,0,1,1.53-.86A21.35,21.35,0,0,1,233,2.2c-1.92,4-3.81,7.88-5.71,11.78-2.12,4.34-4.1,8.75-6.63,12.88a16.1,16.1,0,0,1-4.54,5.19,8.59,8.59,0,0,1-6.75,1.28c-.58-.11-1-.32-.69-1a3.3,3.3,0,0,0,.11-.71c.29-1.69.29-1.68,2-1.63a5.78,5.78,0,0,0,4.18-1.8c.17-.16.32-.36.48-.53,1.88-1.94,2.45-3.87,1.19-6.63-2.89-6.31-5.36-12.8-8-19.22A2.28,2.28,0,0,1,208.35.51Z" transform="translate(-0.22 -0.22)"/><path class="cls-2" d="M355.39,296.88l.8.49q11.28,7,22.55,14.09c.73.46,1,.47,1.51-.34,1.3-2.24,2.75-4.4,4.09-6.63.41-.69.72-.71,1.37-.3,2.17,1.39,2.18,1.36.8,3.57-3.57,5.72-7.15,11.44-10.69,17.19-.48.77-.8.83-1.54.33-2-1.36-2.06-1.32-.77-3.39,1.1-1.76,2.14-3.56,3.32-5.27.6-.88.35-1.21-.45-1.7-6.59-4.07-13.16-8.18-19.73-12.27-1-.61-2-1.25-3-1.83-.47-.28-.62-.5-.26-1,.55-.78,1-1.62,1.53-2.43A5,5,0,0,1,355.39,296.88Z" transform="translate(-0.22 -0.22)"/><path class="cls-2" d="M411.44,232.13c-.69,3.89-1.37,7.74-2.05,11.59-.62,3.45-1.27,6.9-1.85,10.36-.14.8-.34,1-1.22.86-2.55-.49-2.54-.43-2-3,.41-2.11.71-4.25,1.16-6.35.16-.74-.11-.9-.71-1L387,241.45c-2.94-.53-5.89-1.07-8.83-1.57-.66-.11-1-.26-.75-1.05.3-1,.1-2.49.74-3s2,.16,3.07.34c8,1.42,15.94,2.84,23.9,4.3.95.17,1.24-.13,1.38-1,.38-2.44.85-4.87,1.25-7.31.13-.82.38-1.31,1.35-1a15.63,15.63,0,0,0,1.76.34C411.3,231.54,411.64,231.66,411.44,232.13Z" transform="translate(-0.22 -0.22)"/><path class="cls-2" d="M61.62,302.6c-.11.42-.5.51-.78.69L40.3,316.56c-.87.56-2.25,1-2.43,1.78s.94,1.8,1.5,2.71q1.5,2.38,3.06,4.73c.34.51.42.8-.19,1.22-2.29,1.57-2.27,1.59-3.78-.75-3.63-5.64-7.25-11.29-10.93-16.91-.5-.76-.43-1.07.34-1.55,2.1-1.29,2.07-1.32,3.4.74,1.12,1.75,2.31,3.46,3.35,5.25.53.91.93.83,1.72.32,7.36-4.8,14.76-9.54,22.13-14.34.74-.48,1.12-.5,1.54.32a23.64,23.64,0,0,0,1.29,2Z" transform="translate(-0.22 -0.22)"/><path class="cls-1" d="M206.15,396.84c0-3.43.07-6.87,0-10.3,0-1.3.55-1.22,1.41-1.05,4,.8,6.63,3.57,7.44,7.94a15.48,15.48,0,0,1-.88,9.28,9.21,9.21,0,0,1-7.45,5.5c-.73.12-.86-.13-.83-.82.08-1.75.09-3.51.11-5.27s0-3.51,0-5.27Z" transform="translate(-0.22 -0.22)"/><path class="cls-1" d="M201.79,396.7c0,3.48,0,7,0,10.44,0,.86-.2,1.09-1.09.89a9.49,9.49,0,0,1-7.65-7.38,15.27,15.27,0,0,1,.38-8.86,9.26,9.26,0,0,1,7.76-6.47c.81-.13.92.11.92.83,0,3.52,0,7,0,10.56Z" transform="translate(-0.22 -0.22)"/><path class="cls-1" d="M15.58,146.42l-.22-.15c.13-.14.23-.07.34,0Z" transform="translate(-0.22 -0.22)"/><path class="cls-1" d="M329,76.53a8.53,8.53,0,0,1-4.47-1.62,23.11,23.11,0,0,1-3.6-3.15c-.32-.32-.56-.57-.12-1.06,2.45-2.69,4.85-5.42,7.27-8.13.22-.24.4-.65.85-.24,1.95,1.77,4.08,3.36,5.2,5.86a5.88,5.88,0,0,1-4.45,8.27C329.44,76.51,329.2,76.51,329,76.53Z" transform="translate(-0.22 -0.22)"/><path class="cls-1" d="M338.45,64.38a7.1,7.1,0,0,1-4.55-1.87c-1.07-.89-2.71-1.74-2.92-2.83s1.52-2,2.39-3c1.2-1.39,2.45-2.74,3.66-4.12.3-.34.54-.69,1.07-.31A15.42,15.42,0,0,1,343,57.09,4.93,4.93,0,0,1,338.45,64.38Z" transform="translate(-0.22 -0.22)"/><path class="cls-1" d="M161.56,386.33c-.22,4.75-1.66,9-5.13,12.4a9.33,9.33,0,0,1-15.79-4.25,12.94,12.94,0,0,1-.47-4.62,17.46,17.46,0,0,1,5.25-11.74,9,9,0,0,1,9.63-2.19c3.54,1.2,5.48,3.82,6.23,7.41A13.38,13.38,0,0,1,161.56,386.33Z" transform="translate(-0.22 -0.22)"/><path class="cls-1" d="M295.8,372.15a5.46,5.46,0,0,1-5.18-3.41,5.16,5.16,0,0,1,1-6.07,15.67,15.67,0,0,1,6-3.74c.47-.19.65,0,.84.38q2.55,4.53,5.11,9.06c.18.31.27.56-.11.79C301.12,370.56,298.82,372.11,295.8,372.15Z" transform="translate(-0.22 -0.22)"/><path class="cls-1" d="M389.56,119.84c0,3.52-1.29,5.38-4,6.48a6.08,6.08,0,0,1-7.12-1.44,14.91,14.91,0,0,1-3.09-5.49c-.19-.54,0-.85.52-1.11,3.27-1.57,6.52-3.18,9.77-4.79.43-.21.79-.38,1.11.15C388.17,115.84,389.5,118.07,389.56,119.84Z" transform="translate(-0.22 -0.22)"/></svg>